<?xml version="1.0" encoding="UTF-8"?>
<!DOCTYPE svg PUBLIC "-//W3C//DTD SVG 1.1//EN" "http://www.w3.org/Graphics/SVG/1.1/DTD/svg11.dtd">
<svg xmlns="http://www.w3.org/2000/svg" version="1.1" width="500px" height="444px" style="shape-rendering:geometricPrecision; text-rendering:geometricPrecision; image-rendering:optimizeQuality; fill-rule:evenodd; clip-rule:evenodd" xmlns:xlink="http://www.w3.org/1999/xlink">
<g><path style="opacity:0.991" fill="#61b645" d="M 68.5,31.5 C 79.4653,33.4072 90.132,36.2406 100.5,40C 206.818,70.1649 313.151,100.498 419.5,131C 424.833,133 430.167,135 435.5,137C 438.987,141.091 439.154,145.257 436,149.5C 350.437,231.642 264.937,314.142 179.5,397C 174.124,402.044 168.458,406.711 162.5,411C 157.653,411.834 154.153,410 152,405.5C 121.782,284.072 91.9488,162.572 62.5,41C 62.6377,36.5384 64.6377,33.3717 68.5,31.5 Z M 83.5,54.5 C 83.56,53.9569 83.8933,53.6236 84.5,53.5C 104.338,58.8747 124.005,64.7081 143.5,71C 128.614,85.222 113.78,99.3887 99,113.5C 93.8818,93.7098 88.7151,74.0432 83.5,54.5 Z M 173.5,78.5 C 188.718,83.3054 204.051,87.8054 219.5,92C 223.54,93.6903 227.54,95.357 231.5,97C 217.292,111.043 202.959,124.876 188.5,138.5C 183.245,118.557 178.245,98.557 173.5,78.5 Z M 170.5,142.5 C 150.626,137.781 130.959,132.281 111.5,126C 126.728,112.428 141.562,98.2614 156,83.5C 161.408,103.047 166.242,122.713 170.5,142.5 Z M 263.5,105.5 C 282.998,110.375 302.331,115.875 321.5,122C 306.669,135.831 292.169,149.998 278,164.5C 274.021,151.25 270.354,137.917 267,124.5C 265.381,118.239 264.214,111.905 263.5,105.5 Z M 244.5,109.5 C 249.706,128.485 254.706,147.652 259.5,167C 259.167,167.5 258.833,168 258.5,168.5C 239.552,162.513 220.552,156.679 201.5,151C 215.969,137.144 230.302,123.311 244.5,109.5 Z M 351.5,132.5 C 352.097,131.861 352.93,131.528 354,131.5C 373.232,136.766 392.398,142.266 411.5,148C 396.282,162.22 381.448,176.72 367,191.5C 362.186,175.051 358.186,158.384 355,141.5C 353.396,138.541 352.229,135.541 351.5,132.5 Z M 332.5,135.5 C 334.614,136.36 335.78,138.027 336,140.5C 340.446,158.48 344.446,176.48 348,194.5C 328.444,188.738 308.944,182.904 289.5,177C 299.969,167.776 309.969,158.109 319.5,148C 324.41,144.254 328.743,140.087 332.5,135.5 Z M 105.5,142.5 C 107.14,143.32 108.807,144.153 110.5,145C 126.933,149.055 143.266,153.389 159.5,158C 161.555,158.687 163.221,159.854 164.5,161.5C 150.509,175.991 136.009,189.991 121,203.5C 115.673,183.191 110.506,162.858 105.5,142.5 Z M 196.5,169.5 C 216.274,174.528 235.941,180.028 255.5,186C 252.134,190.027 248.134,193.36 243.5,196C 233.387,207.446 222.554,218.279 211,228.5C 206.163,208.829 201.33,189.162 196.5,169.5 Z M 177.5,174.5 C 178.649,174.791 179.316,175.624 179.5,177C 184.105,196.196 188.772,215.363 193.5,234.5C 175.188,229.349 156.855,224.183 138.5,219C 136.777,218.477 135.444,217.477 134.5,216C 148.971,202.135 163.304,188.302 177.5,174.5 Z M 284.5,195.5 C 292.263,196.934 300.263,198.767 308.5,201C 320.606,204.526 332.606,208.359 344.5,212.5C 329.65,226.92 314.817,241.253 300,255.5C 295.005,235.325 289.839,215.325 284.5,195.5 Z M 266.5,198.5 C 271.86,217.93 276.86,237.596 281.5,257.5C 281.167,258.167 280.833,258.833 280.5,259.5C 261.151,253.832 241.817,248.165 222.5,242.5C 230.666,233.169 239.666,224.669 249.5,217C 255.057,210.706 260.724,204.54 266.5,198.5 Z M 128.5,234.5 C 148.192,239.84 167.859,245.34 187.5,251C 172.64,265.194 157.807,279.361 143,293.5C 137.846,273.892 133.013,254.226 128.5,234.5 Z M 219.5,261.5 C 234.473,265.313 249.473,269.146 264.5,273C 268.817,274.824 273.15,276.491 277.5,278C 262.647,291.189 248.147,304.689 234,318.5C 232.473,316.779 231.473,314.779 231,312.5C 227.16,295.491 223.326,278.491 219.5,261.5 Z M 199.5,263.5 C 200.117,263.611 200.617,263.944 201,264.5C 205.644,283.556 210.478,302.556 215.5,321.5C 214.833,321.833 214.167,322.167 213.5,322.5C 194.455,317.155 175.455,311.655 156.5,306C 171.339,292.327 185.673,278.161 199.5,263.5 Z M 149.5,323.5 C 149.56,322.957 149.893,322.624 150.5,322.5C 152.167,323.333 153.833,324.167 155.5,325C 170.581,328.708 185.581,332.708 200.5,337C 203.994,338.217 207.327,339.717 210.5,341.5C 199.987,351.513 189.654,361.68 179.5,372C 175.003,375.992 170.337,379.826 165.5,383.5C 160.142,363.394 154.809,343.394 149.5,323.5 Z"/></g>
</svg>
